<?xml version="1.0"?>
<svg version="1.1" xmlns="http://www.w3.org/2000/svg" xmlns:xlink="http://www.w3.org/1999/xlink" width="200" height="200">
    <desc iVinci="yes" version="4.6" gridStep="20" showGrid="no" snapToGrid="no" codePlatform="0"/>
    <g id="Layer1" name="Layer 1" opacity="1">
        <g id="Shape1">
            <desc shapeID="1" type="0" basicInfo-basicType="0" basicInfo-roundedRectRadius="12" basicInfo-polygonSides="6" basicInfo-starPoints="5" bounding="rect(-80.4689,-89.4869,160.938,178.974)" text="" font-familyName="Futura" font-pixelSize="200" font-bold="0" font-underline="0" font-alignment="1" strokeStyle="0" markerStart="0" markerEnd="0" shadowEnabled="0" shadowOffsetX="0" shadowOffsetY="2" shadowBlur="4" shadowOpacity="160" blurEnabled="0" blurRadius="4" transform="matrix(1,0,0,1,100,100)" pers-center="0,0" pers-size="0,0" pers-start="0,0" pers-end="0,0" locked="0" mesh="" flag=""/>
            <path id="shapePath1" d="M180.469,166.861 L151.855,166.861 L140.039,154.751 C127.474,162.824 113.477,166.861 98.0469,166.861 C78.0599,166.861 60.319,160.09 44.8242,146.548 C27.9622,131.639 19.5312,112.596 19.5312,89.4194 C19.5312,66.698 27.5065,47.7527 43.457,32.5835 C58.9518,17.8699 77.2461,10.5131 98.3398,10.5131 C117.48,10.5131 134.635,16.9585 149.805,29.8491 C168.034,45.3439 177.148,65.5587 177.148,90.4936 C177.148,110.025 169.954,127.375 155.566,142.544 L180.469,166.861 M117.871,104.458 L139.746,126.236 C149.381,116.21 154.199,103.807 154.199,89.0288 C154.199,72.8178 148.828,59.2436 138.086,48.3061 C127.344,37.3686 113.997,31.8999 98.0469,31.8999 C81.901,31.8999 68.6198,37.3686 58.2031,48.3061 C47.7213,59.1785 42.4804,72.948 42.4804,89.6147 C42.4804,105.891 47.8841,119.205 58.6914,129.556 C69.9544,140.233 82.8125,145.572 97.2656,145.572 C107.096,145.572 115.983,143.326 123.926,138.833 L88.4765,104.458 L117.871,104.458 M19.5313,166.861 L180.469,166.861 L180.469,189.487 L19.5313,189.487 L19.5313,166.861 Z" style="stroke:none;fill-rule:evenodd;fill:#000000;fill-opacity:1;"/>
        </g>
    </g>
</svg>
