<?xml version="1.0"?>
<svg version="1.1" xmlns="http://www.w3.org/2000/svg" xmlns:xlink="http://www.w3.org/1999/xlink" width="500" height="150">
    <desc iVinci="yes" version="4.6" gridStep="20" showGrid="no" snapToGrid="no" codePlatform="0"/>
    <g id="Layer1" name="Layer 1" opacity="1">
        <g id="Shape1">
            <desc shapeID="1" type="2" basicInfo-basicType="0" basicInfo-roundedRectRadius="12" basicInfo-polygonSides="6" basicInfo-starPoints="5" bounding="rect(-52.5,-62.5,105,125)" text="Q" font-familyName="Futura" font-pixelSize="100" font-bold="0" font-underline="0" font-alignment="1" strokeStyle="0" markerStart="0" markerEnd="0" shadowEnabled="0" shadowOffsetX="0" shadowOffsetY="2" shadowBlur="4" shadowOpacity="160" blurEnabled="0" blurRadius="4" transform="matrix(1,0,0,1,61.5292,62.1201)" pers-center="0,0" pers-size="0,0" pers-start="0,0" pers-end="0,0" locked="0" mesh="" flag=""/>
            <path id="shapePath1" d="M102.6,101.831 L88.2929,101.831 L82.3847,95.7764 C76.1021,99.8128 69.1034,101.831 61.3886,101.831 C51.3951,101.831 42.5247,98.4456 34.7773,91.6748 C26.3463,84.2204 22.1308,74.6989 22.1308,63.1104 C22.1308,51.7497 26.1184,42.277 34.0937,34.6924 C41.8411,27.3356 50.9882,23.6572 61.5351,23.6572 C71.1054,23.6572 79.6829,26.8799 87.2675,33.3252 C96.3821,41.0726 100.939,51.18 100.939,63.6475 C100.939,73.4131 97.3424,82.0882 90.1483,89.6729 L102.6,101.831 M71.3007,70.6299 L82.2382,81.5186 C87.0559,76.5055 89.4648,70.3044 89.4648,62.915 C89.4648,54.8096 86.7792,48.0225 81.4081,42.5537 C76.037,37.085 69.3638,34.3506 61.3886,34.3506 C53.3157,34.3506 46.675,37.085 41.4667,42.5537 C36.2258,47.9899 33.6054,54.8747 33.6054,63.208 C33.6054,71.346 36.3072,78.0029 41.7108,83.1787 C47.3424,88.5173 53.7714,91.1865 60.998,91.1865 C65.9133,91.1865 70.3567,90.0635 74.328,87.8174 L56.6034,70.6299 L71.3007,70.6299 Z" style="stroke:none;fill-rule:nonzero;fill:#000000;fill-opacity:1;"/>
        </g>
        <g id="Shape2">
            <desc shapeID="2" type="2" basicInfo-basicType="0" basicInfo-roundedRectRadius="12" basicInfo-polygonSides="6" basicInfo-starPoints="5" bounding="rect(-52.5,-62.5,105,125)" text="u" font-familyName="Futura" font-pixelSize="100" font-bold="0" font-underline="0" font-alignment="1" strokeStyle="0" markerStart="0" markerEnd="0" shadowEnabled="0" shadowOffsetX="0" shadowOffsetY="2" shadowBlur="4" shadowOpacity="160" blurEnabled="0" blurRadius="4" transform="matrix(1,0,0,1,133.998,62.1201)" pers-center="0,0" pers-size="0,0" pers-start="0,0" pers-end="0,0" locked="0" mesh="" flag=""/>
            <path id="shapePath2" d="M124.684,52.9053 L124.684,80.2002 C124.684,88.0778 127.792,92.0166 134.01,92.0166 C140.227,92.0166 143.336,88.0778 143.336,80.2002 L143.336,52.9053 L154.322,52.9053 L154.322,80.4443 C154.322,84.2529 153.85,87.5407 152.906,90.3076 C151.995,92.7816 150.416,95.0114 148.17,96.9971 C144.459,100.22 139.739,101.831 134.01,101.831 C128.313,101.831 123.609,100.22 119.898,96.9971 C117.62,95.0114 116.008,92.7816 115.064,90.3076 C114.153,88.0941 113.697,84.8063 113.697,80.4443 L113.697,52.9053 L124.684,52.9053 Z" style="stroke:none;fill-rule:nonzero;fill:#000000;fill-opacity:1;"/>
        </g>
        <g id="Shape3">
            <desc shapeID="3" type="2" basicInfo-basicType="0" basicInfo-roundedRectRadius="12" basicInfo-polygonSides="6" basicInfo-starPoints="5" bounding="rect(-52.5,-62.5,105,125)" text="e" font-familyName="Futura" font-pixelSize="100" font-bold="0" font-underline="0" font-alignment="1" strokeStyle="0" markerStart="0" markerEnd="0" shadowEnabled="0" shadowOffsetX="0" shadowOffsetY="2" shadowBlur="4" shadowOpacity="160" blurEnabled="0" blurRadius="4" transform="matrix(1,0,0,1,188.467,62.1201)" pers-center="0,0" pers-size="0,0" pers-start="0,0" pers-end="0,0" locked="0" mesh="" flag=""/>
            <path id="shapePath3" d="M211.055,79.2725 L176.973,79.2725 C177.266,83.1787 178.535,86.2874 180.781,88.5986 C183.027,90.8773 185.908,92.0166 189.424,92.0166 C192.158,92.0166 194.42,91.3656 196.211,90.0635 C197.969,88.7614 199.971,86.3525 202.217,82.8369 L211.494,88.0127 C210.062,90.4541 208.548,92.5456 206.953,94.2871 C205.358,96.0286 203.649,97.4609 201.826,98.584 C200.003,99.707 198.034,100.529 195.918,101.05 C193.802,101.571 191.507,101.831 189.033,101.831 C181.937,101.831 176.24,99.5524 171.943,94.9951 C167.646,90.4053 165.498,84.318 165.498,76.7334 C165.498,69.2139 167.581,63.1266 171.748,58.4717 C175.947,53.8818 181.514,51.5869 188.447,51.5869 C195.446,51.5869 200.98,53.8167 205.049,58.2764 C209.085,62.7034 211.103,68.8395 211.103,76.6846 L211.055,79.2725 M199.775,70.2881 C198.245,64.4287 194.551,61.499 188.691,61.499 C187.357,61.499 186.103,61.7025 184.932,62.1094 C183.76,62.5163 182.694,63.1022 181.733,63.8672 C180.773,64.6322 179.951,65.5518 179.267,66.626 C178.584,67.7002 178.063,68.9209 177.705,70.2881 L199.775,70.2881 Z" style="stroke:none;fill-rule:nonzero;fill:#000000;fill-opacity:1;"/>
        </g>
        <g id="Shape4">
            <desc shapeID="4" type="2" basicInfo-basicType="0" basicInfo-roundedRectRadius="12" basicInfo-polygonSides="6" basicInfo-starPoints="5" bounding="rect(-52.5,-62.5,105,125)" text="e" font-familyName="Futura" font-pixelSize="100" font-bold="0" font-underline="0" font-alignment="1" strokeStyle="0" markerStart="0" markerEnd="0" shadowEnabled="0" shadowOffsetX="0" shadowOffsetY="2" shadowBlur="4" shadowOpacity="160" blurEnabled="0" blurRadius="4" transform="matrix(1,0,0,1,244.935,62.1201)" pers-center="0,0" pers-size="0,0" pers-start="0,0" pers-end="0,0" locked="0" mesh="" flag=""/>
            <path id="shapePath4" d="M267.523,79.2725 L233.441,79.2725 C233.734,83.1787 235.004,86.2874 237.25,88.5986 C239.496,90.8773 242.377,92.0166 245.892,92.0166 C248.627,92.0166 250.889,91.3656 252.68,90.0635 C254.437,88.7614 256.439,86.3525 258.685,82.8369 L267.963,88.0127 C266.531,90.4541 265.017,92.5456 263.422,94.2871 C261.827,96.0286 260.118,97.4609 258.295,98.584 C256.472,99.707 254.503,100.529 252.387,101.05 C250.271,101.571 247.976,101.831 245.502,101.831 C238.406,101.831 232.709,99.5524 228.412,94.9951 C224.115,90.4053 221.967,84.318 221.967,76.7334 C221.967,69.2139 224.05,63.1266 228.217,58.4717 C232.416,53.8818 237.982,51.5869 244.916,51.5869 C251.915,51.5869 257.448,53.8167 261.517,58.2764 C265.554,62.7034 267.572,68.8395 267.572,76.6846 L267.523,79.2725 M256.244,70.2881 C254.714,64.4287 251.019,61.499 245.16,61.499 C243.825,61.499 242.572,61.7025 241.4,62.1094 C240.228,62.5163 239.162,63.1022 238.202,63.8672 C237.242,64.6322 236.42,65.5518 235.736,66.626 C235.053,67.7002 234.532,68.9209 234.174,70.2881 L256.244,70.2881 Z" style="stroke:none;fill-rule:nonzero;fill:#000000;fill-opacity:1;"/>
        </g>
        <g id="Shape5">
            <desc shapeID="5" type="2" basicInfo-basicType="0" basicInfo-roundedRectRadius="12" basicInfo-polygonSides="6" basicInfo-starPoints="5" bounding="rect(-52.5,-62.5,105,125)" text="n" font-familyName="Futura" font-pixelSize="100" font-bold="0" font-underline="0" font-alignment="1" strokeStyle="0" markerStart="0" markerEnd="0" shadowEnabled="0" shadowOffsetX="0" shadowOffsetY="2" shadowBlur="4" shadowOpacity="160" blurEnabled="0" blurRadius="4" transform="matrix(1,0,0,1,302.404,62.1201)" pers-center="0,0" pers-size="0,0" pers-start="0,0" pers-end="0,0" locked="0" mesh="" flag=""/>
            <path id="shapePath5" d="M281.932,52.9053 L292.967,52.9053 L292.967,57.2998 C296.808,53.4912 301.137,51.5869 305.955,51.5869 C311.489,51.5869 315.802,53.3284 318.894,56.8115 C321.564,59.7738 322.898,64.6077 322.898,71.3135 L322.898,100.464 L311.863,100.464 L311.863,73.9014 C311.863,69.2139 311.212,65.9749 309.91,64.1846 C308.641,62.3617 306.329,61.4502 302.976,61.4502 C299.331,61.4502 296.743,62.6546 295.213,65.0635 C293.715,67.4398 292.967,71.5902 292.967,77.5146 L292.967,100.464 L281.932,100.464 L281.932,52.9053 Z" style="stroke:none;fill-rule:nonzero;fill:#000000;fill-opacity:1;"/>
        </g>
        <g id="Shape6">
            <desc shapeID="6" type="2" basicInfo-basicType="0" basicInfo-roundedRectRadius="12" basicInfo-polygonSides="6" basicInfo-starPoints="5" bounding="rect(-52.5,-62.5,105,125)" text="s" font-familyName="Futura" font-pixelSize="100" font-bold="0" font-underline="0" font-alignment="1" strokeStyle="0" markerStart="0" markerEnd="0" shadowEnabled="0" shadowOffsetX="0" shadowOffsetY="2" shadowBlur="4" shadowOpacity="160" blurEnabled="0" blurRadius="4" transform="matrix(1,0,0,1,351.873,62.1201)" pers-center="0,0" pers-size="0,0" pers-start="0,0" pers-end="0,0" locked="0" mesh="" flag=""/>
            <path id="shapePath6" d="M366.162,61.0107 L357.08,65.8447 C355.648,62.915 353.874,61.4502 351.758,61.4502 C350.749,61.4502 349.886,61.7839 349.17,62.4512 C348.454,63.1185 348.096,63.973 348.096,65.0146 C348.096,66.8376 350.211,68.6442 354.443,70.4346 C360.27,72.9411 364.193,75.2523 366.211,77.3682 C368.229,79.484 369.238,82.3324 369.238,85.9131 C369.238,90.5029 367.545,94.3441 364.16,97.4365 C360.872,100.366 356.901,101.831 352.246,101.831 C344.271,101.831 338.623,97.9411 335.303,90.1611 L344.678,85.8154 C345.98,88.0941 346.973,89.5426 347.656,90.1611 C348.991,91.3981 350.586,92.0166 352.441,92.0166 C356.152,92.0166 358.008,90.3239 358.008,86.9385 C358.008,84.9854 356.575,83.1624 353.711,81.4697 C352.604,80.9163 351.497,80.3792 350.391,79.8584 C349.284,79.3376 348.161,78.8005 347.021,78.2471 C343.831,76.6846 341.585,75.1221 340.283,73.5596 C338.623,71.5739 337.793,69.0186 337.793,65.8936 C337.793,61.7594 339.209,58.3415 342.041,55.6396 C344.938,52.9378 348.454,51.5869 352.588,51.5869 C358.675,51.5869 363.2,54.7282 366.162,61.0107 Z" style="stroke:none;fill-rule:nonzero;fill:#000000;fill-opacity:1;"/>
        </g>
        <g id="Shape7">
            <desc shapeID="7" type="2" basicInfo-basicType="0" basicInfo-roundedRectRadius="12" basicInfo-polygonSides="6" basicInfo-starPoints="5" bounding="rect(-52.5,-62.5,105,125)" text="y" font-familyName="Futura" font-pixelSize="100" font-bold="0" font-underline="0" font-alignment="1" strokeStyle="0" markerStart="0" markerEnd="0" shadowEnabled="0" shadowOffsetX="0" shadowOffsetY="2" shadowBlur="4" shadowOpacity="160" blurEnabled="0" blurRadius="4" transform="matrix(1,0,0,1,399.342,62.1201)" pers-center="0,0" pers-size="0,0" pers-start="0,0" pers-end="0,0" locked="0" mesh="" flag=""/>
            <path id="shapePath7" d="M394.094,91.626 L372.707,52.9053 L385.451,52.9053 L400.002,80.249 L413.576,52.9053 L425.978,52.9053 L388.088,126.343 L375.539,126.343 L394.094,91.626 Z" style="stroke:none;fill-rule:nonzero;fill:#000000;fill-opacity:1;"/>
        </g>
        <g id="Shape8">
            <desc shapeID="8" type="2" basicInfo-basicType="0" basicInfo-roundedRectRadius="12" basicInfo-polygonSides="6" basicInfo-starPoints="5" bounding="rect(-52.5,-62.5,105,125)" text="a" font-familyName="Futura" font-pixelSize="100" font-bold="0" font-underline="0" font-alignment="1" strokeStyle="0" markerStart="0" markerEnd="0" shadowEnabled="0" shadowOffsetX="0" shadowOffsetY="2" shadowBlur="4" shadowOpacity="160" blurEnabled="0" blurRadius="4" transform="matrix(1,0,0,1,454.81,62.1201)" pers-center="0,0" pers-size="0,0" pers-start="0,0" pers-end="0,0" locked="0" mesh="" flag=""/>
            <path id="shapePath8" d="M466.834,52.9053 L477.869,52.9053 L477.869,100.464 L466.834,100.464 L466.834,95.4834 C462.309,99.7152 457.443,101.831 452.234,101.831 C445.659,101.831 440.223,99.4548 435.926,94.7021 C431.661,89.8519 429.529,83.7972 429.529,76.5381 C429.529,69.4092 431.661,63.4684 435.926,58.7158 C440.19,53.9632 445.529,51.5869 451.941,51.5869 C457.475,51.5869 462.439,53.8656 466.834,58.4229 L466.834,52.9053 M440.76,76.5381 C440.76,81.0954 441.98,84.8063 444.422,87.6709 C446.928,90.568 450.086,92.0166 453.894,92.0166 C457.963,92.0166 461.251,90.6169 463.758,87.8174 C466.264,84.9202 467.518,81.2419 467.518,76.7822 C467.518,72.3226 466.264,68.6442 463.758,65.7471 C461.251,62.915 457.996,61.499 453.992,61.499 C450.216,61.499 447.059,62.9313 444.519,65.7959 C442.013,68.693 440.76,72.2738 440.76,76.5381 Z" style="stroke:none;fill-rule:nonzero;fill:#000000;fill-opacity:1;"/>
        </g>
        <g id="Shape9">
            <desc shapeID="9" type="0" basicInfo-basicType="1" basicInfo-roundedRectRadius="12" basicInfo-polygonSides="6" basicInfo-starPoints="5" bounding="rect(-232,-5.5,464,11)" text="" font-familyName="Futura" font-pixelSize="100" font-bold="0" font-underline="0" font-alignment="1" strokeStyle="0" markerStart="0" markerEnd="0" shadowEnabled="0" shadowOffsetX="0" shadowOffsetY="2" shadowBlur="4" shadowOpacity="160" blurEnabled="0" blurRadius="4" transform="matrix(0.748076,0,0,0.900119,195.684,106.782)" pers-center="0,0" pers-size="0,0" pers-start="0,0" pers-end="0,0" locked="0" mesh="" flag=""/>
            <path id="shapePath9" d="M22.1308,101.831 L369.238,101.831 L369.238,111.732 L22.1308,111.732 L22.1308,101.831 Z" style="stroke:none;fill-rule:evenodd;fill:#000000;fill-opacity:1;"/>
        </g>
        <g id="Shape10">
            <desc shapeID="10" type="0" basicInfo-basicType="1" basicInfo-roundedRectRadius="12" basicInfo-polygonSides="6" basicInfo-starPoints="5" bounding="rect(-232,-5.5,464,11)" text="" font-familyName="Futura" font-pixelSize="100" font-bold="0" font-underline="0" font-alignment="1" strokeStyle="0" markerStart="0" markerEnd="0" shadowEnabled="0" shadowOffsetX="0" shadowOffsetY="2" shadowBlur="4" shadowOpacity="160" blurEnabled="0" blurRadius="4" transform="matrix(0.104181,0,0,0.900127,453.699,106.782)" pers-center="0,0" pers-size="0,0" pers-start="0,0" pers-end="0,0" locked="0" mesh="" flag=""/>
            <path id="shapePath10" d="M429.529,101.831 L477.869,101.831 L477.869,111.733 L429.529,111.733 L429.529,101.831 Z" style="stroke:none;fill-rule:evenodd;fill:#000000;fill-opacity:1;"/>
        </g>
        <g id="Shape11">
            <desc shapeID="11" type="0" basicInfo-basicType="1" basicInfo-roundedRectRadius="12" basicInfo-polygonSides="6" basicInfo-starPoints="5" bounding="rect(-232,-5.5,464,11)" text="" font-familyName="Futura" font-pixelSize="100" font-bold="0" font-underline="0" font-alignment="1" strokeStyle="0" markerStart="0" markerEnd="0" shadowEnabled="0" shadowOffsetX="0" shadowOffsetY="2" shadowBlur="4" shadowOpacity="160" blurEnabled="0" blurRadius="4" transform="matrix(0.11481,0,0,0.900144,399.343,106.782)" pers-center="0,0" pers-size="0,0" pers-start="0,0" pers-end="0,0" locked="0" mesh="" flag=""/>
            <path id="shapePath11" d="M372.707,101.831 L425.979,101.831 L425.979,111.733 L372.707,111.733 L372.707,101.831 Z" style="stroke:none;fill-rule:evenodd;fill:#000000;fill-opacity:1;"/>
        </g>
    </g>
</svg>
